<svg width="10" height="10" viewBox="0 0 10 10" fill="none" xmlns="http://www.w3.org/2000/svg">
<path d="M5 0.78125C7.31682 0.78125 9.21875 2.65771 9.21875 5C9.21875 7.3299 7.33184 9.21875 5 9.21875C2.67102 9.21875 0.78125 7.33277 0.78125 5C0.78125 2.67182 2.66801 0.78125 5 0.78125ZM5 0.15625C2.32506 0.15625 0.15625 2.32584 0.15625 5C0.15625 7.67572 2.32506 9.84375 5 9.84375C7.67494 9.84375 9.84375 7.67572 9.84375 5C9.84375 2.32584 7.67494 0.15625 5 0.15625ZM4.29688 6.875H4.53125V4.53125H4.29688C4.16744 4.53125 4.0625 4.42631 4.0625 4.29688V4.14062C4.0625 4.01119 4.16744 3.90625 4.29688 3.90625H5.23438C5.36381 3.90625 5.46875 4.01119 5.46875 4.14062V6.875H5.70312C5.83256 6.875 5.9375 6.97994 5.9375 7.10938V7.26562C5.9375 7.39506 5.83256 7.5 5.70312 7.5H4.29688C4.16744 7.5 4.0625 7.39506 4.0625 7.26562V7.10938C4.0625 6.97994 4.16744 6.875 4.29688 6.875ZM5 2.1875C4.65482 2.1875 4.375 2.46732 4.375 2.8125C4.375 3.15768 4.65482 3.4375 5 3.4375C5.34518 3.4375 5.625 3.15768 5.625 2.8125C5.625 2.46732 5.34518 2.1875 5 2.1875Z" fill="#F52C5C"/>
</svg>
