<svg fill="none" height="809" viewBox="0 0 523 809" width="523" xmlns="http://www.w3.org/2000/svg" xmlns:xlink="http://www.w3.org/1999/xlink"><linearGradient id="a" gradientUnits="userSpaceOnUse" x1="170.929" x2="489.227" y1="381.67" y2="579.077"><stop offset="0" stop-color="#0071f7"/><stop offset="1" stop-color="#9dcfff"/></linearGradient><linearGradient id="b" gradientUnits="userSpaceOnUse" x1="266.099" x2="299.616" y1="441.46" y2="440.911"><stop offset="0" stop-color="#dee5f4"/><stop offset="1" stop-color="#f4f6fb"/></linearGradient><linearGradient id="c" gradientUnits="userSpaceOnUse" x1="223.481" x2="284.402" y1="516.116" y2="595.939"><stop offset="0" stop-color="#055a9c"/><stop offset="1" stop-color="#7c83c0"/></linearGradient><linearGradient id="d" gradientUnits="userSpaceOnUse" x1="229.657" x2="258.341" y1="331.979" y2="330.827"><stop offset="0" stop-color="#fafbff"/><stop offset="1" stop-color="#f4f6fb"/></linearGradient><linearGradient id="e" gradientUnits="userSpaceOnUse" x1="224.843" x2="224.843" y1="355.209" y2="718.12"><stop offset="0" stop-color="#fff"/><stop offset="1" stop-color="#fff" stop-opacity="0"/></linearGradient><path d="m98.0687 564.16c-2.1802 68.229-69.9202 39.998-57.9506 100.19 14.4361 72.489 66.6349 72.285 98.3699 47.306 79.054-62.153 107.913 20.684 189.506 24.474 60.968 2.907 55.616-85.863 126.125-71.78 65.605 13.094 57.404-96.882 6.777-118.245-66.623-28.05-109.224 56.748-172.616-12.564-55.928-61.202-171.667-101.508-190.2113 30.619z" fill="url(#a)" opacity=".05"/><path d="m356.564 716.184h-5.293l-28.734-105.106h8.923z" fill="#b8c3de"/><path d="m227.414 716.184h5.293l28.885-105.106h-8.922z" fill="#b8c3de"/><path d="m345.375 680.039h-91.798v5.444h91.798z" fill="#b8c3de"/><path d="m266.887 680.039h-106.77v5.444h106.77z" fill="#dce5f8"/><path d="m278.832 716.184h-5.293l-28.734-105.106h8.922z" fill="#dae3f8"/><path d="m149.681 716.184h5.293l28.885-105.106h-8.923z" fill="#dae3f8"/><path d="m191.42 678.076 3.932 13.46s8.469 2.722 15.274-2.269c0 0-1.966-11.947-2.722-16.484" fill="#ffc5b4"/><path d="m266.582 607.148c-.605 2.268-2.722 3.781-5.142 3.781h-101.476c-6.503 0-9.376-8.016-7.713-13.914.152-.453.303-.907.605-1.512v-.151c5.747-14.518 17.694-35.993 34.935-47.336 22.533-14.82 50.36-20.416 65.483-36.9 1.059-1.21 2.117-2.42 3.025-3.63 1.814-2.117 4.234-4.839 6.805-7.108 2.42-2.117 4.839-3.024 8.318-2.571 4.688 2.42 6.805 8.923 8.771 25.559 3.025 23.592-9.679 70.171-13.611 83.782z" fill="#ccd4e7"/><path d="m257.812 460.303-22.382 12.401s-4.839 4.234-2.722 10.283c1.966 6.05 7.864 7.562 13.157 5.294 5.293-2.269 28.885-13.763 28.885-13.763l.454-12.249" fill="#f7d9c7"/><path d="m305.45 445.328-13.762 16.031-4.537 16.635-1.21 1.664-18.753 5.444c-5.293-25.709-11.04-24.197-11.04-24.197l17.392-8.771s17.24-8.772 21.475-8.318c3.63.151 10.435 1.512 10.435 1.512z" fill="#fff"/><path d="m356.413 496.446c-5.294 18.299-25.407 51.873-26.466 55.956s-3.932 20.87-6.957 22.382c-3.024 1.513-37.354 10.586-58.526 8.167-14.821-29.188-33.876-13.309-29.793-22.987 1.21-2.874 11.494-16.636 21.778-36.296 11.04-21.172 22.382-48.545 23.894-52.931 2.571-2.571-.453-10.435 2.42-12.552 12.855-9.225 20.87-12.855 22.836-12.855l6.049 2.874c21.475 5.293 43.555 12.098 44.916 16.635 3.932 13.006-.151 31.607-.151 31.607z" fill="#fff"/><path d="m165.711 589.754h84.841c5.898 0 10.586 4.688 10.586 10.586s-4.688 10.586-10.586 10.586h-84.841c-5.898 0-10.586-4.688-10.586-10.586 0-5.747 4.688-10.586 10.586-10.586z" fill="#ccd3e6"/><path clip-rule="evenodd" d="m194.443 549.981c32.969 1.966 57.166 16.333 57.166 16.333l28.734 4.234-13.308 26.314-65.31-1.072c4.657 15.378 6.858 32.589 5.877 48.408-.756 13.308 2.42 30.397 2.42 30.397-8.015 3.781-18.904 4.84-18.904 4.84-8.221-19.756-22.834-73.687-26.312-86.684-4.861-15.212-1.558-44.631 29.637-42.77z" fill="#5783b9" fill-rule="evenodd"/><path d="m334.788 531.227s9.073-4.99 17.845-20.265c7.561-13.006-14.821-11.342-14.821-11.342l-8.922 6.654" fill="#f6d9c6"/><path d="m351.121 460.754s9.679 3.629 13.006 15.577c3.327 11.947-7.864 38.413-7.864 38.413s-16.786-1.815-28.734-9.679c0 0 3.327-18.602 9.377-28.885" fill="#fff"/><path d="m303.936 397.238s-1.21 3.176-1.512 5.898c-.151 1.815.302 4.386.907 6.352.303 1.21 1.664 4.235 2.722 4.839 4.084 1.966 2.42-13.308 2.42-13.308" fill="#0e2259"/><path d="m333.427 453.949c.151.302.302.302.302.302s-11.796 10.133-24.197 8.318c-13.459-1.966-4.385-17.241-4.385-17.241 2.873.605 4.083 1.059 4.839.152 0-.152.151-.152.151-.303.454-.756.908-1.966 1.361-3.025l1.664-6.956c.151-.303.151-.605.151-.908.756-4.839.605-8.317.605-8.317l27.978 1.361c-6.049 6.2-10.889 21.777-10.738 22.533.454 1.513 1.21 2.874 2.269 4.084z" fill="#f9e1d2"/><path d="m332.67 433.081c-6.049 4.689-12.249 13.762-22.382 11.948.454-.757.908-1.966 1.21-3.025l1.664-6.957c.151-.302.151-.605.151-.907 9.376-1.966 24.651-5.293 19.357-1.059z" fill="#fbd9c4"/><path d="m306.658 400.26c-.605 1.361-.907 2.874-1.209 4.537-1.059 7.259-4.537 32.666 1.814 35.237 7.411 3.025 19.056-2.117 24.651-6.352 10.738-8.015 14.065-10.132 13.46-23.592-.757-18.904-31.154-28.431-38.716-9.83z" fill="#f9e1d2"/><path d="m344.467 393.456c.605-3.025.907-11.645-12.25-12.855-8.771-.756-31.91 6.352-32.364 7.108-.302.605.303 1.21 2.269 1.815-.756.151-1.512.454-2.269.605-5.746 1.663-3.327 6.654 1.664 9.679 3.327 1.966 10.132 4.083 17.694 2.419-1.059.454-2.268.908-3.478 1.21 0 0 3.932.907 7.864-.151-.454 1.966-.756 4.537 0 6.957 1.512 4.536 3.629 6.956 3.781 9.83l2.117-.757s1.361-6.805 7.108-4.99c5.746 1.663 1.361 16.484 2.571 16.635 1.209.151 7.561-8.166 9.981-18.601 2.268-9.225 2.268-16.333-4.688-18.904z" fill="#0e2259"/><path d="m292.444 460.303s7.562 1.361 11.192 5.595c3.629 4.235 8.015 13.762 11.342 19.055 3.327 5.294 20.567 19.963 24.802 29.491 4.234 9.527-2.571 18.147-12.099 19.508-9.527 1.362-13.459-14.669-18.904-27.524-5.293-12.854-6.049-23.138-12.703-29.339" fill="#f5d2bc"/><path d="m300.306 483.137c.152-.454.303-.908.152-1.361l-16.182-69.113c-.151-.908-1.059-1.513-1.966-1.513h-40.833c-.605 0-1.21.303-1.512.757l-.907 1.361h.453v.302l16.182 69.113c.151.907 1.059 1.512 1.966 1.512h40.833.453l.303.454.756-1.21s0-.151.151-.151z" fill="#d7def1"/><path d="m297.584 485.557h-40.832c-.907 0-1.664-.605-1.966-1.513l-16.182-69.113c-.302-1.209.605-2.419 1.966-2.419h40.833c.907 0 1.663.605 1.966 1.512l16.181 69.113c.303 1.21-.604 2.42-1.966 2.42z" fill="url(#b)"/><path d="m274.597 448.958c0 1.815-2.722 3.327-6.2 3.327-3.327 0-6.201-1.512-6.201-3.327s2.723-3.327 6.201-3.327 6.2 1.512 6.2 3.327z" fill="#cdd7f2"/><path d="m232.406 481.776s-2.269-7.259.453-13.46c2.723-6.2 7.713-18.147 7.713-18.147s3.932-1.362 6.654 1.209c1.664 7.411 5.293 22.836 5.293 22.836" fill="#f7dac7"/><path d="m240.267 443.966c0-.151-.151-.302-.151-.452v.15c.151 0 .151.151.151.302z" fill="#ffc5b4"/><g fill="#f7dac7"><path d="m239.512 452.74s1.361-4.537 1.21-5.747c0-1.059.605-3.932.605-4.688s2.873-3.63 2.873-3.63l.605 2.874 4.688-1.815s4.386-.454 5.747-1.059c.907-.302 2.42.152.756 1.815-.605.605-4.688 1.966-4.688 1.966l-5.596 3.478 1.21 5.445"/><path d="m245.26 445.479 7.259-3.478 6.2-1.966s1.059.151.152 1.664c-.757 1.361-4.84 3.176-4.84 3.176l-8.469 4.234"/><path d="m243.898 447.902 7.26-3.479s4.385-.907 5.746-1.361c.303-.151 1.513-.454 1.059 1.059-.454 1.21-5.293 3.024-5.293 3.024l-8.469 4.235"/><path d="m243.898 450.469 7.26-3.478 3.78-.756s1.059-.454 1.059.907-3.327 2.722-3.327 2.722l-8.469 4.235"/><path d="m252.065 450.17s-1.361 1.059-1.815 2.268c-.453 1.21-1.209 2.42-2.57 5.142-1.362 2.722-2.723.303-2.723-.302s-.453-6.352-.302-6.503 1.966-1.664 1.966-1.664"/></g><path d="m165.107 599.131-5.293 11.947c-6.503 0-9.377-8.015-7.713-13.913.151-.454.302-.908.605-1.513v-.151c2.722-5.898 7.713-6.503 7.713-6.503z" fill="#ccd3e6"/><path d="m209.265 708.472c-.152 0-.303.152-.605.152 0 0-2.42 0-4.084.453-1.512.454-7.561 6.806-13.913 7.108-.302 0-.454 0-.756 0h-.151c-1.664 0-3.479 0-5.293 0h-8.318c-1.361 0-2.571-1.058-2.571-2.419-.151-2.118.302-5.596 3.478-8.772 2.42-2.42 9.074-5.747 12.855-9.074 2.42-2.117 2.722-4.688 2.722-5.142 0-1.058.151-3.024.151-3.024s1.664-1.966 5.747-2.118c3.932-.302 7.562 2.723 9.528 2.874s2.117-1.966 2.117-1.966 1.21.454 3.025 3.024c1.814 2.571 1.361 7.713 1.966 9.528s.907 2.117 1.361 3.327c.302 1.21-3.327 4.537-7.259 6.049z" fill="#0e2259"/><path d="m223.554 572.469-7.713 6.654s-1.059 5.596 1.058 10.889c2.118 5.293 9.528 2.268 9.528 2.268s7.108-7.259 9.679-9.074" fill="#f7d9c7"/><path d="m318.757 548.317s2.571-16.484-.756-29.792c-3.024-12.099-10.737-14.367-23.441-10.586-17.845 5.444-27.826 18.601-39.622 30.548-13.914 14.065-27.525 31.154-31.457 33.725 0 0 5.596 10.889 11.948 14.065l31.607-15.124" fill="url(#c)"/><path d="m220.152 576.296s-3.629 3.024-3.176 3.932c.757 1.663 7.108 1.058 9.528 2.268 4.839 2.117 5.444 6.352 3.327 9.074-3.327 4.235-7.259 6.352-12.401 10.133-5.142 3.78-6.805 4.688-9.376 9.981-2.42 5.444-8.016 7.108-11.04 5.898-5.293-2.117-10.889-7.562-9.225-16.484 1.663-8.772 10.132-11.948 13.762-13.611 3.478-1.664 7.713-6.806 10.586-8.923 6.352-4.537 8.015-2.268 8.015-2.268z" fill="#0e2259"/><path d="m249.342 611.079c-3.478 0-6.049-3.327-5.142-6.654 3.327-12.552 16.636-42.042 37.959-56.107 28.281-18.601 64.879-22.685 74.406-51.872 0 0 14.972-.454 18.299 27.221 2.874 23.441-9.83 70.021-13.762 83.631-.605 2.269-2.722 3.781-5.142 3.781z" fill="#c7cfe4"/><path d="m232 0v294" stroke="#dee5f4" stroke-miterlimit="10" stroke-width=".75"/><path d="m258.374 321.998s-1.361 14.67-11.343 25.558h-29.792c-9.83-10.888-11.343-25.558-11.343-25.558 13.006-7.259 26.164-32.666 26.164-32.666s13.157 25.256 26.314 32.666z" fill="#dee5f4"/><path d="m265.068 216.066c0 1.512-1.209 2.722-2.722 2.722-1.512 0-2.722-1.21-2.722-2.722s1.21-2.722 2.722-2.722c1.513 0 2.722 1.21 2.722 2.722z" fill="#fff"/><path d="m232.21 327.596c-14.821 0-26.163-5.746-26.163-5.746s1.361 14.669 11.342 25.558h14.821 14.821c9.83-10.889 11.342-25.558 11.342-25.558s-11.342 5.746-26.163 5.746z" fill="url(#d)"/><path d="m368.564 741.684h-287.4331l136.2961-394.061h29.985z" fill="url(#e)" opacity=".35"/></svg>