<svg fill="none" height="809" viewBox="0 0 524 809" width="524" xmlns="http://www.w3.org/2000/svg" xmlns:xlink="http://www.w3.org/1999/xlink"><linearGradient id="a" gradientUnits="userSpaceOnUse" x1="170.953" x2="489.251" y1="381.67" y2="579.077"><stop offset="0" stop-color="#0071f7"/><stop offset="1" stop-color="#9dcfff"/></linearGradient><linearGradient id="b" gradientUnits="userSpaceOnUse" x1="266.121" x2="299.639" y1="441.458" y2="440.909"><stop offset="0" stop-color="#dee5f4"/><stop offset="1" stop-color="#f4f6fb"/></linearGradient><linearGradient id="c" gradientUnits="userSpaceOnUse" x1="223.504" x2="284.424" y1="516.116" y2="595.939"><stop offset="0" stop-color="#ee3c40"/><stop offset="1" stop-color="#480305"/></linearGradient><linearGradient id="d" gradientUnits="userSpaceOnUse" x1="229.681" x2="258.364" y1="331.979" y2="330.827"><stop offset="0" stop-color="#fafbff"/><stop offset="1" stop-color="#f4f6fb"/></linearGradient><linearGradient id="e" gradientUnits="userSpaceOnUse" x1="224.867" x2="224.867" y1="355.21" y2="718.121"><stop offset="0" stop-color="#fff"/><stop offset="1" stop-color="#fff" stop-opacity="0"/></linearGradient><path d="m98.0922 564.16c-2.1803 68.229-69.9203 39.998-57.9506 100.19 14.436 72.489 66.6344 72.285 98.3694 47.306 79.055-62.153 107.913 20.684 189.506 24.474 60.969 2.907 55.616-85.863 126.125-71.78 65.605 13.094 57.404-96.882 6.778-118.245-66.624-28.05-109.224 56.748-172.616-12.564-55.928-61.202-171.668-101.508-190.2118 30.619z" fill="url(#a)" opacity=".05"/><path d="m356.588 716.184h-5.293l-28.734-105.106h8.922z" fill="#b8c3de"/><path d="m227.436 716.184h5.293l28.885-105.106h-8.923z" fill="#b8c3de"/><path d="m345.397 680.039h-91.797v5.444h91.797z" fill="#b8c3de"/><path d="m266.908 680.039h-106.769v5.444h106.769z" fill="#dce5f8"/><path d="m278.855 716.184h-5.293l-28.734-105.106h8.923z" fill="#dae3f8"/><path d="m149.703 716.184h5.293l28.885-105.106h-8.922z" fill="#dae3f8"/><path d="m191.443 678.074 3.932 13.46s8.469 2.722 15.275-2.269c0 0-1.966-11.947-2.722-16.484" fill="#ffc5b4"/><path d="m266.605 607.147c-.605 2.268-2.722 3.781-5.142 3.781h-101.476c-6.503 0-9.377-8.016-7.713-13.914.151-.453.302-.907.605-1.512v-.151c5.746-14.518 17.694-35.993 34.934-47.336 22.534-14.82 50.36-20.416 65.483-36.9 1.059-1.21 2.118-2.42 3.025-3.63 1.815-2.117 4.235-4.839 6.806-7.108 2.419-2.117 4.839-3.024 8.317-2.57 4.688 2.419 6.806 8.922 8.772 25.558 3.024 23.592-9.679 70.171-13.611 83.782z" fill="#ccd4e7"/><path d="m257.834 460.302-22.383 12.401s-4.839 4.234-2.722 10.283c1.966 6.05 7.864 7.562 13.157 5.294 5.294-2.269 28.886-13.762 28.886-13.762l.453-12.25" fill="#f7d9c7"/><path d="m305.471 445.327-13.762 16.031-4.537 16.635-1.209 1.664-18.753 5.444c-5.293-25.709-11.04-24.197-11.04-24.197l17.392-8.771s17.24-8.772 21.474-8.318c3.63.151 10.435 1.512 10.435 1.512z" fill="#fff"/><path d="m356.435 496.445c-5.293 18.299-25.407 51.873-26.465 55.956-1.059 4.083-3.932 20.87-6.957 22.382-3.025 1.513-37.354 10.586-58.527 8.167-14.82-29.188-33.876-13.309-29.792-22.987 1.21-2.874 11.493-16.636 21.777-36.296 11.04-21.172 22.382-48.545 23.895-52.931 2.571-2.571-.454-10.435 2.419-12.552 12.855-9.225 20.87-12.855 22.836-12.855l6.05 2.874c21.474 5.293 43.554 12.098 44.915 16.635 3.932 13.006-.151 31.607-.151 31.607z" fill="#fff"/><path d="m165.733 589.754h84.841c5.898 0 10.586 4.688 10.586 10.586s-4.688 10.586-10.586 10.586h-84.841c-5.898 0-10.587-4.688-10.587-10.586 0-5.747 4.689-10.586 10.587-10.586z" fill="#ccd3e6"/><path d="m251.631 566.314s-24.197-14.367-57.165-16.333c-32.969-1.966-34.783 31.002-28.734 45.218l101.325 1.663 13.308-26.314z" fill="#9d2023"/><path clip-rule="evenodd" d="m194.466 549.981c32.968 1.966 57.165 16.333 57.165 16.333l28.734 4.234-13.308 26.314-65.309-1.072c4.657 15.378 6.858 32.589 5.877 48.408-.756 13.308 2.419 30.397 2.419 30.397-8.015 3.781-18.904 4.84-18.904 4.84-8.22-19.756-22.834-73.687-26.312-86.684-4.86-15.212-1.558-44.631 29.638-42.77z" fill="#a93c3f" fill-rule="evenodd"/><path d="m334.81 531.226s9.074-4.99 17.845-20.265c7.562-13.006-14.82-11.342-14.82-11.342l-8.923 6.654" fill="#f6d9c6"/><path d="m351.143 460.753s9.679 3.629 13.006 15.577c3.327 11.947-7.864 38.413-7.864 38.413s-16.787-1.815-28.734-9.679c0 0 3.327-18.602 9.376-28.885" fill="#fff"/><path d="m303.958 397.237s-1.21 3.176-1.513 5.898c-.151 1.815.303 4.386.908 6.352.302 1.21 1.663 4.235 2.722 4.839 4.083 1.966 2.42-13.308 2.42-13.308" fill="#0e2259"/><path d="m333.447 453.949c.152.302.303.302.303.302s-11.796 10.133-24.197 8.318c-13.46-1.966-4.386-17.241-4.386-17.241 2.874.605 4.083 1.059 4.84.152 0-.152.151-.152.151-.303.453-.756.907-1.966 1.361-3.025l1.663-6.956c.152-.303.152-.605.152-.908.756-4.839.605-8.317.605-8.317l27.977 1.361c-6.049 6.2-10.888 21.777-10.737 22.533.454 1.513 1.21 2.874 2.268 4.084z" fill="#f9e1d2"/><path d="m332.693 433.08c-6.049 4.689-12.25 13.762-22.382 11.948.453-.756.907-1.966 1.209-3.025l1.664-6.957c.151-.302.151-.605.151-.907 9.377-1.966 24.651-5.293 19.358-1.059z" fill="#fbd9c4"/><path d="m306.679 400.259c-.605 1.361-.907 2.874-1.21 4.537-1.059 7.259-4.537 32.666 1.815 35.237 7.41 3.025 19.055-2.117 24.651-6.352 10.737-8.015 14.064-10.132 13.459-23.592-.756-18.904-31.154-28.431-38.715-9.83z" fill="#f9e1d2"/><path d="m344.488 393.455c.605-3.025.908-11.645-12.25-12.855-8.771-.756-31.909 6.352-32.363 7.108-.303.605.302 1.21 2.268 1.815-.756.151-1.512.454-2.268.605-5.747 1.663-3.327 6.654 1.663 9.679 3.328 1.966 10.133 4.083 17.695 2.419-1.059.454-2.269.908-3.479 1.21 0 0 3.932.908 7.864-.151-.453 1.966-.756 4.537 0 6.957 1.513 4.536 3.63 6.956 3.781 9.83l2.117-.757s1.361-6.805 7.108-4.99c5.747 1.663 1.361 16.484 2.571 16.635 1.21.152 7.562-8.166 9.981-18.601 2.269-9.225 2.269-16.333-4.688-18.904z" fill="#0e2259"/><path d="m292.467 460.302s7.561 1.361 11.191 5.595c3.63 4.235 8.015 13.762 11.342 19.055 3.327 5.294 20.568 19.963 24.802 29.491 4.235 9.527-2.571 18.147-12.098 19.508-9.528 1.362-13.46-14.669-18.904-27.524-5.293-12.854-6.049-23.138-12.704-29.339" fill="#f5d2bc"/><path d="m300.329 483.136c.151-.454.302-.908.151-1.361l-16.182-69.113c-.151-.908-1.058-1.513-1.966-1.513h-40.832c-.605 0-1.21.303-1.513.757l-.907 1.361h.454v.302l16.182 69.113c.151.907 1.058 1.512 1.966 1.512h40.832.454l.302.454.756-1.21s0-.151.152-.151z" fill="#d7def1"/><path d="m297.607 485.555h-40.833c-.907 0-1.663-.605-1.966-1.513l-16.181-69.113c-.303-1.209.605-2.419 1.966-2.419h40.832c.908 0 1.664.605 1.966 1.512l16.182 69.113c.302 1.21-.605 2.42-1.966 2.42z" fill="url(#b)"/><path d="m274.62 448.958c0 1.815-2.722 3.327-6.201 3.327-3.327 0-6.2-1.512-6.2-3.327s2.722-3.327 6.2-3.327c3.479 0 6.201 1.512 6.201 3.327z" fill="#cdd7f2"/><path d="m232.427 481.775s-2.268-7.259.454-13.46c2.722-6.2 7.713-18.147 7.713-18.147s3.932-1.361 6.654 1.209c1.663 7.411 5.293 22.836 5.293 22.836" fill="#f7dac7"/><path d="m240.289 443.965c0-.151-.15-.302-.15-.452v.15c.15 0 .15.151.15.302z" fill="#ffc5b4"/><g fill="#f7dac7"><path d="m239.535 452.738s1.361-4.537 1.21-5.747c0-1.059.605-3.932.605-4.688s2.873-3.63 2.873-3.63l.605 2.874 4.688-1.815s4.386-.454 5.747-1.059c.908-.302 2.42.152.756 1.815-.604.605-4.688 1.966-4.688 1.966l-5.595 3.478 1.21 5.445"/><path d="m245.281 445.479 7.259-3.479 6.201-1.966s1.058.151.151 1.664c-.756 1.361-4.839 3.176-4.839 3.176l-8.469 4.234"/><path d="m243.92 447.9 7.259-3.479s4.386-.907 5.747-1.361c.302-.151 1.512-.454 1.058 1.059-.453 1.21-5.293 3.024-5.293 3.024l-8.469 4.235"/><path d="m243.92 450.469 7.259-3.478 3.781-.756s1.058-.454 1.058.907-3.327 2.722-3.327 2.722l-8.469 4.235"/><path d="m252.088 450.168s-1.361 1.059-1.815 2.268c-.454 1.21-1.21 2.42-2.571 5.142-1.361 2.723-2.722.303-2.722-.302s-.454-6.352-.303-6.503c.152-.151 1.966-1.664 1.966-1.664"/></g><path d="m165.129 599.131-5.293 11.947c-6.503 0-9.376-8.015-7.713-13.913.152-.454.303-.908.605-1.513v-.151c2.722-5.898 7.713-6.503 7.713-6.503z" fill="#ccd3e6"/><path d="m209.286 708.471c-.151 0-.302.152-.605.152 0 0-2.42 0-4.083.453-1.512.454-7.562 6.806-13.913 7.108-.303 0-.454 0-.757 0h-.151c-1.663 0-3.478 0-5.293 0h-8.318c-1.361 0-2.571-1.058-2.571-2.419-.151-2.118.303-5.596 3.479-8.772 2.42-2.42 9.074-5.747 12.854-9.074 2.42-2.117 2.723-4.688 2.723-5.142 0-1.058.151-3.024.151-3.024s1.663-1.966 5.747-2.117c3.932-.303 7.561 2.722 9.527 2.873s2.118-1.966 2.118-1.966 1.209.454 3.024 3.024c1.815 2.571 1.361 7.713 1.966 9.528s.907 2.117 1.361 3.327c.303 1.21-3.327 4.537-7.259 6.049z" fill="#0e2259"/><path d="m223.575 572.469-7.713 6.654s-1.058 5.596 1.059 10.889 9.528 2.268 9.528 2.268 7.107-7.259 9.678-9.074" fill="#f7d9c7"/><path d="m318.78 548.317s2.571-16.484-.756-29.792c-3.025-12.099-10.738-14.367-23.441-10.586-17.846 5.444-27.827 18.601-39.623 30.548-13.913 14.065-27.524 31.154-31.456 33.725 0 0 5.595 10.889 11.947 14.065l31.608-15.124" fill="url(#c)"/><path d="m220.176 576.296s-3.63 3.024-3.176 3.932c.756 1.663 7.108 1.058 9.527 2.268 4.84 2.117 5.445 6.352 3.328 9.074-3.328 4.235-7.26 6.352-12.401 10.133-5.142 3.78-6.806 4.688-9.377 9.981-2.42 5.444-8.015 7.108-11.04 5.898-5.293-2.117-10.888-7.562-9.225-16.484 1.664-8.772 10.133-11.948 13.762-13.611 3.479-1.664 7.713-6.806 10.586-8.923 6.352-4.537 8.016-2.268 8.016-2.268z" fill="#0e2259"/><path d="m249.365 611.077c-3.479 0-6.05-3.327-5.142-6.654 3.327-12.552 16.635-42.042 37.959-56.107 28.28-18.601 64.878-22.685 74.406-51.872 0 0 14.972-.454 18.299 27.221 2.873 23.441-9.83 70.021-13.762 83.632-.605 2.268-2.722 3.78-5.142 3.78z" fill="#ee3c40"/><path d="m231.824 0v294.31" stroke="#dee5f4" stroke-miterlimit="10" stroke-width=".75"/><path d="m258.397 321.998s-1.361 14.67-11.342 25.558h-29.793c-9.83-10.888-11.342-25.558-11.342-25.558 13.006-7.259 26.163-32.666 26.163-32.666s13.157 25.256 26.314 32.666z" fill="#dee5f4"/><path d="m265.091 216.066c0 1.512-1.21 2.722-2.722 2.722-1.513 0-2.723-1.21-2.723-2.722s1.21-2.722 2.723-2.722c1.512 0 2.722 1.21 2.722 2.722z" fill="#fff"/><path d="m232.233 327.596c-14.82 0-26.163-5.746-26.163-5.746s1.361 14.669 11.343 25.558h14.82 14.821c9.83-10.889 11.342-25.558 11.342-25.558s-11.342 5.746-26.163 5.746z" fill="url(#d)"/><path d="m368.587 741.685h-287.4327l136.2957-394.061h29.985z" fill="url(#e)" opacity=".35"/></svg>